{"title":"Gangster No1 2000 480p BRRip XviD-DiN","uid":8826485,"size":1569345137,"categoryP":"video","categoryS":"movies","magnet":"?xt=urn:btih:fa420ca7b87949aac9c9d99c1ea66715c72908b6&amp;dn=Gangster+No1+2000+480p+BRRip+XviD-DiN+&amp;tr=udp%3A%2F%2Ftracker.openbittorrent.com%3A80&amp;tr=udp%3A%2F%2Fopen.demonii.com%3A1337&amp;tr=udp%3A%2F%2Ftracker.coppersurfer.tk%3A6969&amp;tr=udp%3A%2F%2Fexodus.desync.com%3A6969","seeders":1,"leechers":0,"uploader":"R0thschild","files":4,"time":1376860569,"description":" &lt;a href=&quot;http://www.imdb.com/title/tt0210065/&quot; rel=&quot;nofollow&quot; target=&quot;_NEW&quot;&gt;http://www.imdb.com/title/tt0210065/&lt;/a&gt;\n\n\nGeneral\n\nComplete name                            : Gangster.No.1.2000.480p.BRRip.XviD-DiN\n\nFormat                                   : AVI\n\nFormat/Info                              : Audio Video Interleave\n\nFile size                                : 1.45 GiB\n\nDuration                                 : 1h 42mn\n\nOverall bit rate                         : 2 017 Kbps\n\n\n\nVideo\n\nID                                       : 0\n\nFormat                                   : MPEG-4 Visual\n\nFormat profile                           : Advanced Simple@L5\n\nFormat settings, BVOP                    : 2\n\nFormat settings, QPel                    : No\n\nFormat settings, GMC                     : No warppoints\n\nFormat settings, Matrix                  : Default (H.263)\n\nCodec ID                                 : XVID\n\nCodec ID/Hint                            : XviD\n\nDuration                                 : 1h 42mn\n\nBit rate                                 : 1 626 Kbps\n\nWidth                                    : 720 pixels\n\nHeight                                   : 400 pixels\n\nDisplay aspect ratio                     : 16:9\n\nFrame rate                               : 23.976 fps\n\nColor space                              : YUV\n\nChroma subsampling                       : 4:2:0\n\nBit depth                                : 8 bits\n\nScan type                                : Progressive\n\nCompression mode                         : Lossy\n\nBits/(Pixel*Frame)                       : 0.235\n\nStream size                              : 1.17 GiB (81%)\n\nWriting library                          : XviD 1.2.1 (UTC 2008-12-04)\n\n\n\nAudio\n\nID                                       : 1\n\nFormat                                   : AC-3\n\nFormat/Info                              : Audio Coding 3\n\nMode extension                           : CM (complete main)\n\nFormat settings, Endianness              : Big\n\nCodec ID                                 : 2000\n\nDuration                                 : 1h 42mn\n\nBit rate mode                            : Constant\n\nBit rate                                 : 384 Kbps\n\nChannel(s)                               : 6 channels\n\nChannel positions                        : Front: L C R, Side: L R, LFE\n\nSampling rate                            : 48.0 KHz\n\nBit depth                                : 16 bits\n\nCompression mode                         : Lossy\n\nStream size                              : 282 MiB (19%)\n\nAlignment                                : Aligned on interleaves\n\nInterleave, duration                     : 64 ms (1.53 video frames)\n\nInterleave, preload duration             : 192 ms\n\nTitle                                    : Gangster.No.1.2000.Bluray\n","torrent":{"xt":"urn:btih:fa420ca7b87949aac9c9d99c1ea66715c72908b6","amp;dn":"Gangster+No1+2000+480p+BRRip+XviD-DiN+","amp;tr":["udp%3A%2F%2Ftracker.openbittorrent.com%3A80","udp%3A%2F%2Fopen.demonii.com%3A1337","udp%3A%2F%2Ftracker.coppersurfer.tk%3A6969","udp%3A%2F%2Fexodus.desync.com%3A6969"],"infoHash":"fa420ca7b87949aac9c9d99c1ea66715c72908b6","infoHashBuffer":{"type":"Buffer","data":[250,66,12,167,184,121,73,170,201,201,217,156,30,166,103,21,199,41,8,182]},"announce":[],"urlList":[]}}